<svg width="18" height="19" viewBox="0 0 18 19" fill="none" xmlns="http://www.w3.org/2000/svg">
<path d="M9.673 0.223503C9.47863 0.0783975 9.24256 0 9 0C8.75744 0 8.52137 0.0783975 8.327 0.223503L0.355 6.1745C-0.32 6.678 0.0365 7.7505 0.878 7.7505H17.1225C17.9645 7.7505 18.3205 6.678 17.646 6.1745L9.673 0.223503ZM9 5C8.73478 5 8.48043 4.89465 8.29289 4.70711C8.10536 4.51957 8 4.26522 8 4C8 3.73479 8.10536 3.48043 8.29289 3.2929C8.48043 3.10536 8.73478 3 9 3C9.26522 3 9.51957 3.10536 9.70711 3.2929C9.89464 3.48043 10 3.73479 10 4C10 4.26522 9.89464 4.51957 9.70711 4.70711C9.51957 4.89465 9.26522 5 9 5ZM0 17.1255C0 15.675 1.175 14.5 2.625 14.5H15.375C16.825 14.5 18 15.675 18 17.125V17.875C18 18.22 17.72 18.4995 17.375 18.4995H0.625C0.28 18.5 0 18.22 0 17.875V17.125V17.1255ZM4 13.5H2V8.75H4V13.5ZM6 8.75V13.5H8V8.75H6ZM10 8.75V13.5H12V8.75H10ZM14 8.75V13.5H16V8.75H14Z" fill="#1C1C39"/>
</svg>
