<svg width="86" height="86" viewBox="0 0 86 86" fill="none" xmlns="http://www.w3.org/2000/svg">
<path d="M9.91451 5.23438H60.0441C65.5026 5.23438 69.9586 9.69033 69.9586 15.1489V66.7266C69.9586 72.1852 65.5026 76.6411 60.0441 76.6411H9.91451C4.45596 76.6411 0 72.1852 0 66.7266V15.0375C0 9.69033 4.45596 5.23438 9.91451 5.23438Z" fill="#4A566E"/>
<path d="M32.4171 51.9099L17.7124 37.2052L0 54.9176V58.5938V66.6145C0 72.0731 4.45596 76.529 9.91451 76.529H60.0441C65.5026 76.529 69.9586 72.0731 69.9586 66.6145V58.5938V47.5653L53.3601 30.8555L32.4171 51.9099Z" fill="#1C1C39"/>
<path d="M31.9717 35.09C35.4171 35.09 38.2101 32.297 38.2101 28.8516C38.2101 25.4063 35.4171 22.6133 31.9717 22.6133C28.5264 22.6133 25.7334 25.4063 25.7334 28.8516C25.7334 32.297 28.5264 35.09 31.9717 35.09Z" fill="#FAFAFA"/>
<path d="M69.9584 80.7626C78.8179 80.7626 85.9999 73.5806 85.9999 64.7211C85.9999 55.8617 78.8179 48.6797 69.9584 48.6797C61.099 48.6797 53.917 55.8617 53.917 64.7211C53.917 73.5806 61.099 80.7626 69.9584 80.7626Z" fill="white"/>
<path d="M67.6201 57.2574C67.6201 55.9206 68.6227 54.918 69.9595 54.918C71.1849 54.918 72.2989 55.9206 72.2989 57.2574V72.4076C72.2989 73.7444 71.2963 74.747 69.9595 74.747C68.6227 74.747 67.6201 73.7444 67.6201 72.4076V57.2574Z" fill="#1C1C39"/>
<path d="M68.2885 58.8169C67.3973 57.9257 67.3973 56.4776 68.2885 55.5864C69.1797 54.6952 70.6279 54.6952 71.5191 55.5864L76.8662 60.9335C77.7574 61.8247 77.7574 63.2729 76.8662 64.1641C75.975 65.0553 74.5269 65.0553 73.6357 64.1641L68.2885 58.8169Z" fill="#1C1C39"/>
<path d="M68.2879 55.5864C69.1791 54.6952 70.6273 54.6952 71.5185 55.5864C72.4097 56.4776 72.4097 57.9257 71.5185 58.8169L66.2828 64.1641C65.3916 65.0553 63.9434 65.0553 63.0522 64.1641C62.161 63.2729 62.161 61.8247 63.0522 60.9335L68.2879 55.5864Z" fill="#1C1C39"/>
</svg>
