<svg width="20" height="20" viewBox="0 0 20 20" fill="none" xmlns="http://www.w3.org/2000/svg">
<path d="M5.60152 19.7988C4.30852 19.7988 3.09752 19.2438 2.22352 18.3588C0.528516 16.6428 0.0565159 13.6478 2.43252 11.2428L12.1805 1.37278C13.1685 0.372782 14.4255 -0.0142176 15.6285 0.312782C16.8115 0.632782 17.7795 1.61378 18.0965 2.81078C18.4185 4.03078 18.0375 5.30378 17.0505 6.30378L7.72752 15.7438C7.19552 16.2828 6.59352 16.6018 5.98952 16.6658C5.39052 16.7298 4.81952 16.5358 4.41952 16.1308C3.69552 15.3948 3.59152 14.0138 4.79752 12.7938L11.3455 6.16378C11.6145 5.89178 12.0505 5.89178 12.3195 6.16378C12.5885 6.43578 12.5885 6.87778 12.3195 7.14978L5.77052 13.7808C5.20452 14.3528 5.15252 14.8998 5.39352 15.1448C5.49952 15.2508 5.65952 15.2998 5.84452 15.2788C6.12752 15.2498 6.45052 15.0628 6.75352 14.7578L16.0765 5.31878C16.7165 4.67078 16.9615 3.90878 16.7665 3.17378C16.669 2.81436 16.4804 2.48621 16.2188 2.22113C15.9572 1.95605 15.6316 1.76303 15.2735 1.66078C14.5475 1.46378 13.7935 1.71278 13.1535 2.36078L3.40552 12.2308C1.58952 14.0698 2.02452 16.1868 3.19652 17.3738C4.36952 18.5608 6.45852 19.0028 8.27552 17.1618L18.0235 7.29178C18.0871 7.22714 18.1629 7.1758 18.2465 7.14075C18.3301 7.10571 18.4199 7.08766 18.5105 7.08766C18.6012 7.08766 18.6909 7.10571 18.7745 7.14075C18.8582 7.1758 18.934 7.22714 18.9975 7.29178C19.1269 7.42344 19.1994 7.60067 19.1994 7.78528C19.1994 7.9699 19.1269 8.14712 18.9975 8.27878L9.24952 18.1488C8.10052 19.3108 6.81352 19.7988 5.60152 19.7988Z" fill="#666666"/>
</svg>
