<svg width="78" height="72" viewBox="0 0 78 72" fill="none" xmlns="http://www.w3.org/2000/svg">
<path d="M75.7633 13.7335L53.0108 0.598659C51.6297 -0.20095 49.9242 -0.198154 48.5431 0.598659L25.7906 13.7335C25.7906 13.7335 25.7906 13.7335 25.7878 13.7363L8.83101 23.5273C7.59246 24.243 7.13954 25.7808 7.82172 26.9634C8.5039 28.146 10.064 28.5263 11.3025 27.8105L23.5567 20.7343V26.4853L1.32699 39.3182C0.088434 40.0339 -0.364487 41.5716 0.317697 42.7543C0.999881 43.9369 2.55995 44.3172 3.79851 43.6014L23.5539 32.1944V37.9063L12.6473 44.2053C11.4088 44.9211 10.9559 46.4588 11.6408 47.6414C12.323 48.824 13.8831 49.2043 15.1216 48.4885L23.5567 43.6182V43.8754C23.5567 44.6722 23.7692 45.4411 24.155 46.1093C24.5408 46.7775 25.1 47.345 25.7906 47.7448L26.0478 47.893L5.08459 59.9962C3.84604 60.7119 3.39591 62.2497 4.07809 63.4323C4.76028 64.6149 6.32036 64.9952 7.55891 64.2794L30.9964 50.7476L35.9422 53.6021L25.5809 59.5852C24.3423 60.3009 23.8894 61.8387 24.5744 63.0213C25.2566 64.2039 26.8166 64.5842 28.0552 63.8684L40.8881 56.4595L45.8339 59.314L33.5798 66.3903C32.3412 67.106 31.8883 68.6437 32.5733 69.8264C33.2554 71.009 34.8155 71.3864 36.0541 70.6735L59.6509 57.0494L75.7661 47.7448C77.1473 46.948 78 45.4718 78 43.8782V17.6057C77.9972 16.0065 77.1473 14.5331 75.7633 13.7335Z" fill="#1C1C39"/>
<path d="M50.7767 52.2094C50.6397 52.2094 50.5055 52.173 50.3825 52.1031L32.4723 41.7613C32.2291 41.6215 32.0781 41.3615 32.0781 41.0792V20.3984C32.0781 20.116 32.2291 19.856 32.4723 19.7162C32.7156 19.5764 33.0175 19.5764 33.2608 19.7162L51.1709 30.058C51.4141 30.1978 51.5651 30.4578 51.5651 30.7402V51.4237C51.5651 51.7061 51.4141 51.9661 51.1709 52.1059C51.0507 52.1758 50.9137 52.2094 50.7767 52.2094ZM33.655 40.6234L49.9883 50.0538V31.1931L33.655 21.7627V40.6234Z" fill="white"/>
<path d="M50.7767 52.2094C50.6397 52.2094 50.5055 52.173 50.3825 52.1031L32.4723 41.7613C32.2291 41.6215 32.0781 41.3615 32.0781 41.0792V20.3984C32.0781 20.116 32.2291 19.856 32.4723 19.7162L50.3825 9.37438C50.6257 9.23458 50.9277 9.23458 51.1709 9.37438L69.0838 19.7162C69.327 19.856 69.478 20.116 69.478 20.3984V41.0792C69.478 41.3615 69.327 41.6215 69.0838 41.7613L51.1709 52.1031C51.0507 52.1758 50.9137 52.2094 50.7767 52.2094ZM33.655 40.6234L50.7767 50.5095L67.9012 40.6234V20.8541L50.7767 10.968L33.655 20.8541V40.6234Z" fill="white"/>
<path d="M50.7767 52.2092C50.6397 52.2092 50.5055 52.1729 50.3825 52.103C50.1393 51.9632 49.9883 51.7032 49.9883 51.4208V30.7372C49.9883 30.4548 50.1393 30.1948 50.3825 30.055L68.2954 19.7132C68.5387 19.5735 68.8406 19.5735 69.0838 19.7132C69.3271 19.853 69.4781 20.113 69.4781 20.3954V41.0762C69.4781 41.3586 69.3271 41.6186 69.0838 41.7584L51.1709 52.1002C51.0507 52.1757 50.9137 52.2092 50.7767 52.2092ZM51.5651 31.1929V50.0537L67.9012 40.6233V21.7626L51.5651 31.1929Z" fill="white"/>
<path d="M50.7767 31.5286C50.6397 31.5286 50.5055 31.4922 50.3825 31.4223L32.4723 21.0805C32.2291 20.9408 32.0781 20.6807 32.0781 20.3984C32.0781 20.116 32.2291 19.856 32.4723 19.7162L50.3825 9.37438C50.6257 9.23458 50.9277 9.23458 51.1709 9.37438L69.0838 19.7162C69.327 19.856 69.478 20.116 69.478 20.3984C69.478 20.6807 69.327 20.9408 69.0838 21.0805L51.1709 31.4223C51.0507 31.4922 50.9137 31.5286 50.7767 31.5286ZM34.4434 20.3984L50.7795 29.8287L67.1155 20.3984L50.7795 10.968L34.4434 20.3984Z" fill="white"/>
<path d="M50.7765 31.529C50.6395 31.529 50.5053 31.4927 50.3823 31.4228L41.2399 26.1442C40.9967 26.0044 40.8457 25.7444 40.8457 25.4621C40.8457 25.1797 40.9967 24.9197 41.2399 24.7799L50.3823 19.5013C50.6255 19.3615 50.9275 19.3615 51.1707 19.5013L60.3131 24.7799C60.5563 24.9197 60.7073 25.1797 60.7073 25.4621C60.7073 25.7444 60.5563 26.0044 60.3131 26.1442L51.1707 31.4228C51.0505 31.4927 50.9135 31.529 50.7765 31.529ZM43.2138 25.4621L50.7793 29.8291L58.3448 25.4621L50.7793 21.095L43.2138 25.4621Z" fill="white"/>
<path d="M32.8661 20.3975L29.335 30.3115L47.2479 40.6505L50.7762 30.7393L32.8661 20.3975Z" fill="white"/>
<path d="M47.2485 41.4401C47.1115 41.4401 46.9746 41.4037 46.8543 41.3339L28.9442 30.9949C28.6143 30.8047 28.4689 30.4049 28.5947 30.0471L32.1259 20.133C32.2042 19.9122 32.3775 19.7388 32.5956 19.6577C32.8164 19.5767 33.0597 19.599 33.261 19.7137L51.1711 30.0554C51.501 30.2456 51.6464 30.6426 51.5206 31.0032L47.9894 40.9145C47.9112 41.1353 47.7378 41.3087 47.5197 41.3898C47.4331 41.4233 47.3408 41.4401 47.2485 41.4401ZM30.3002 29.9576L46.8236 39.497L49.8151 31.0955L33.2917 21.5561L30.3002 29.9576Z" fill="white"/>
<path d="M68.6883 20.3975L72.2195 30.3087L54.3065 40.6505L50.7754 30.7393L68.6883 20.3975Z" fill="white"/>
<path d="M54.3074 41.4399C54.2151 41.4399 54.1229 41.4232 54.0362 41.3924C53.8153 41.3113 53.6448 41.138 53.5665 40.9171L50.0353 31.0031C49.9067 30.6452 50.0549 30.2454 50.3848 30.0553L68.2978 19.7135C68.4991 19.5961 68.7451 19.5765 68.9632 19.6576C69.184 19.7386 69.3546 19.912 69.4329 20.1329L72.964 30.0469C73.0926 30.4048 72.9444 30.8046 72.6145 30.9947L54.7016 41.3365C54.5814 41.4036 54.4444 41.4399 54.3074 41.4399ZM51.7408 31.0925L54.7324 39.4968L71.2557 29.9574L68.2642 21.5531L51.7408 31.0925Z" fill="white"/>
<path d="M5.54269 31.0984C6.71694 30.419 7.11954 28.9176 6.44295 27.7433C5.76356 26.5691 4.2622 26.1665 3.08794 26.8459C1.91369 27.5253 1.51109 29.0266 2.18768 30.2009C2.86707 31.3751 4.36844 31.7749 5.54269 31.0984Z" fill="#F5E9E4"/>
<path d="M9.74777 51.5749C10.922 50.8955 11.3246 49.3942 10.648 48.2199C9.96864 47.0457 8.46727 46.6431 7.29302 47.3225C6.11877 47.999 5.71617 49.5032 6.39276 50.6774C7.06936 51.8489 8.57072 52.2515 9.74777 51.5749Z" fill="#F5E9E4"/>
<path d="M19.382 63.1837C18.2078 63.8603 17.8052 65.3644 18.4846 66.5387C19.1639 67.7129 20.6653 68.1155 21.8396 67.4389C23.0138 66.7595 23.4164 65.2582 22.7398 64.0839C22.0604 62.9069 20.5563 62.5043 19.382 63.1837Z" fill="#F5E9E4"/>
</svg>
