<svg width="44" height="40" viewBox="0 0 44 40" fill="none" xmlns="http://www.w3.org/2000/svg">
<path d="M41.9636 7.60667L29.3615 0.331584C28.5965 -0.111302 27.6519 -0.109753 26.8869 0.331584L14.2848 7.60667C14.2848 7.60667 14.2848 7.60667 14.2833 7.60822L4.8913 13.0312C4.20529 13.4277 3.95443 14.2794 4.33227 14.9344C4.71012 15.5894 5.57421 15.8 6.26022 15.4036L13.0475 11.4842V14.6696L0.734989 21.7775C0.0489816 22.1739 -0.201881 23.0256 0.175965 23.6806C0.553811 24.3357 1.4179 24.5463 2.10391 24.1498L13.046 17.8317V20.9954L7.00507 24.4843C6.31906 24.8807 6.0682 25.7324 6.44759 26.3875C6.82544 27.0425 7.68953 27.2531 8.37554 26.8567L13.0475 24.1591V24.3016C13.0475 24.7429 13.1652 25.1688 13.3789 25.5389C13.5926 25.909 13.9023 26.2233 14.2848 26.4448L14.4273 26.5269L2.81624 33.2305C2.13023 33.627 1.88092 34.4787 2.25876 35.1337C2.63661 35.7887 3.5007 35.9993 4.18671 35.6029L17.1682 28.1079L19.9076 29.689L14.1687 33.0029C13.4827 33.3993 13.2318 34.251 13.6112 34.9061C13.989 35.5611 14.8531 35.7717 15.5391 35.3753L22.647 31.2716L25.3864 32.8527L18.5991 36.7721C17.9131 37.1685 17.6622 38.0202 18.0416 38.6752C18.4194 39.3303 19.2835 39.5393 19.9695 39.1444L33.0393 31.5984L41.9651 26.4448C42.7301 26.0034 43.2024 25.1858 43.2024 24.3031V9.75141C43.2009 8.86564 42.7301 8.04955 41.9636 7.60667Z" fill="white"/>
<path d="M28.1243 28.9166C28.0484 28.9166 27.9741 28.8965 27.9059 28.8578L17.9859 23.1297C17.8512 23.0523 17.7676 22.9083 17.7676 22.7519V11.2972C17.7676 11.1408 17.8512 10.9968 17.9859 10.9194C18.1206 10.842 18.2879 10.842 18.4226 10.9194L28.3426 16.6475C28.4774 16.7249 28.561 16.8689 28.561 17.0253V28.4815C28.561 28.6379 28.4774 28.7819 28.3426 28.8594C28.276 28.8981 28.2002 28.9166 28.1243 28.9166ZM18.641 22.4995L27.6876 27.7227V17.2762L18.641 12.0529V22.4995Z" fill="#1C1C39"/>
<path d="M28.1243 28.9162C28.0484 28.9162 27.9741 28.8961 27.9059 28.8574L17.9859 23.1293C17.8512 23.0519 17.7676 22.9078 17.7676 22.7514V11.2968C17.7676 11.1404 17.8512 10.9964 17.9859 10.919L27.9059 5.19088C28.0407 5.11346 28.2079 5.11346 28.3426 5.19088L38.2642 10.919C38.3989 10.9964 38.4825 11.1404 38.4825 11.2968V22.7514C38.4825 22.9078 38.3989 23.0519 38.2642 23.1293L28.3426 28.8574C28.276 28.8976 28.2002 28.9162 28.1243 28.9162ZM18.641 22.499L28.1243 27.9747L37.6091 22.499V11.5492L28.1243 6.07356L18.641 11.5492V22.499Z" fill="#1C1C39"/>
<path d="M28.1242 28.9162C28.0483 28.9162 27.974 28.8961 27.9059 28.8574C27.7711 28.78 27.6875 28.636 27.6875 28.4796V17.0234C27.6875 16.867 27.7711 16.723 27.9059 16.6455L37.8274 10.9174C37.9621 10.84 38.1294 10.84 38.2641 10.9174C38.3988 10.9949 38.4824 11.1389 38.4824 11.2953V22.7499C38.4824 22.9063 38.3988 23.0503 38.2641 23.1278L28.3425 28.8559C28.276 28.8977 28.2001 28.9162 28.1242 28.9162ZM28.5609 17.2758V27.7223L37.6091 22.4991V12.0525L28.5609 17.2758Z" fill="#1C1C39"/>
<path d="M28.1243 17.4616C28.0484 17.4616 27.9741 17.4415 27.9059 17.4028L17.9859 11.6747C17.8512 11.5972 17.7676 11.4532 17.7676 11.2968C17.7676 11.1404 17.8512 10.9964 17.9859 10.919L27.9059 5.19088C28.0407 5.11346 28.2079 5.11346 28.3426 5.19088L38.2642 10.919C38.3989 10.9964 38.4825 11.1404 38.4825 11.2968C38.4825 11.4532 38.3989 11.5972 38.2642 11.6747L28.3426 17.4028C28.276 17.4415 28.2002 17.4616 28.1243 17.4616ZM19.0777 11.2968L28.1258 16.5201L37.174 11.2968L28.1258 6.07356L19.0777 11.2968Z" fill="#1C1C39"/>
<path d="M28.1245 17.4621C28.0486 17.4621 27.9743 17.442 27.9061 17.4033L22.8424 14.4796C22.7076 14.4022 22.624 14.2582 22.624 14.1018C22.624 13.9454 22.7076 13.8013 22.8424 13.7239L27.9061 10.8003C28.0409 10.7228 28.2081 10.7228 28.3428 10.8003L33.4066 13.7239C33.5413 13.8013 33.6249 13.9454 33.6249 14.1018C33.6249 14.2582 33.5413 14.4022 33.4066 14.4796L28.3428 17.4033C28.2762 17.442 28.2004 17.4621 28.1245 17.4621ZM23.9356 14.1018L28.126 16.5206L32.3164 14.1018L28.126 11.6829L23.9356 14.1018Z" fill="#1C1C39"/>
<path d="M18.2039 11.2949L16.248 16.7861L26.1696 22.5126L28.1239 17.023L18.2039 11.2949Z" fill="#1C1C39"/>
<path d="M26.1703 22.9509C26.0944 22.9509 26.0185 22.9308 25.9519 22.8921L16.0319 17.1655C15.8492 17.0602 15.7687 16.8388 15.8384 16.6406L17.7942 11.1494C17.8375 11.0271 17.9335 10.9311 18.0543 10.8862C18.1767 10.8413 18.3114 10.8536 18.4229 10.9171L28.3429 16.6452C28.5256 16.7505 28.6062 16.9704 28.5365 17.1702L26.5807 22.6598C26.5373 22.7821 26.4413 22.8781 26.3205 22.923C26.2725 22.9416 26.2214 22.9509 26.1703 22.9509ZM16.783 16.591L25.9349 21.8747L27.5919 17.2213L18.4399 11.9376L16.783 16.591Z" fill="#1C1C39"/>
<path d="M38.0456 11.2969L40.0014 16.7865L30.0798 22.5146L28.124 17.025L38.0456 11.2969Z" fill="#1C1C39"/>
<path d="M30.0802 22.9514C30.0291 22.9514 29.978 22.9421 29.93 22.925C29.8077 22.8801 29.7132 22.7841 29.6698 22.6618L27.714 17.1706C27.6428 16.9724 27.7248 16.751 27.9076 16.6457L37.8291 10.9176C37.9406 10.8525 38.0769 10.8417 38.1977 10.8866C38.32 10.9315 38.4145 11.0275 38.4578 11.1499L40.4137 16.641C40.4849 16.8392 40.4028 17.0607 40.2201 17.166L30.2985 22.8941C30.2319 22.9312 30.1561 22.9514 30.0802 22.9514ZM28.6586 17.2202L30.3156 21.8751L39.4675 16.5915L37.8106 11.9365L28.6586 17.2202Z" fill="#1C1C39"/>
<path d="M3.07038 17.2238C3.72077 16.8475 3.94376 16.0159 3.56901 15.3656C3.19271 14.7152 2.36114 14.4922 1.71075 14.8685C1.06036 15.2448 0.837368 16.0763 1.21212 16.7267C1.58841 17.3771 2.41999 17.5986 3.07038 17.2238Z" fill="#F5E9E4"/>
<path d="M5.39948 28.5656C6.04987 28.1893 6.27286 27.3577 5.89811 26.7074C5.52181 26.057 4.69024 25.834 4.03985 26.2103C3.38946 26.585 3.16647 27.4181 3.54122 28.0685C3.91597 28.7174 4.74754 28.9404 5.39948 28.5656Z" fill="#F5E9E4"/>
<path d="M10.7357 34.9954C10.0853 35.3701 9.86229 36.2032 10.2386 36.8536C10.6149 37.504 11.4465 37.727 12.0968 37.3523C12.7472 36.976 12.9702 36.1444 12.5955 35.494C12.2192 34.8421 11.3861 34.6191 10.7357 34.9954Z" fill="#F5E9E4"/>
</svg>
