<svg width="26" height="24" viewBox="0 0 26 24" fill="none" xmlns="http://www.w3.org/2000/svg">
<path fill-rule="evenodd" clip-rule="evenodd" d="M18.6566 0.750059L7.32023 0.75C3.35831 0.75 0.5 3.95189 0.5 8.07371V15.9263C0.5 20.0481 3.35831 23.25 7.32023 23.25H18.646C20.5491 23.2287 22.3503 22.4276 23.6407 21.0332C24.9312 19.6388 25.5983 17.7729 25.4866 15.8699L25.4883 8.07371C25.5983 6.22713 24.9312 4.36119 23.6407 2.9668C22.3503 1.57242 20.5491 0.771314 18.6566 0.750059ZM7.32024 2.66076L18.6355 2.6607C20.0091 2.67613 21.3166 3.25763 22.2533 4.26976C23.19 5.28189 23.6742 6.63631 23.5931 8.01759L23.5915 15.9265C23.6742 17.3641 23.19 18.7186 22.2533 19.7307C21.3166 20.7428 20.0091 21.3243 18.6355 21.3398L7.32024 21.3397C4.4535 21.3397 2.39681 19.0358 2.39681 15.9265V8.07394C2.39681 4.96467 4.4535 2.66076 7.32024 2.66076ZM20.53 7.79777C20.2027 7.38588 19.6059 7.31925 19.197 7.64893L14.0729 11.7801L13.926 11.8833C13.3218 12.2617 12.5285 12.2268 11.9498 11.7725L6.78821 7.64645L6.67204 7.56681C6.2717 7.3339 5.75177 7.42519 5.45576 7.80088C5.13015 8.21413 5.1988 8.81501 5.60908 9.14298L10.7772 13.2742L10.9788 13.4217C12.2789 14.3072 14.0017 14.2582 15.2485 13.2793L20.3823 9.1405L20.4853 9.0442C20.8 8.70307 20.8276 8.17221 20.53 7.79777Z" fill="#38EA82"/>
</svg>
