<svg width="31" height="37" viewBox="0 0 31 37" fill="none" xmlns="http://www.w3.org/2000/svg">
<path d="M30.2778 11.1612C30.0352 10.7739 29.6564 10.5043 29.2111 10.402L26.8655 9.86301L27.9485 9.55985C28.8458 9.30873 29.3865 8.35034 29.1349 7.45135C28.8837 6.55403 27.9255 6.01355 27.0263 6.26497L21.9767 7.67827C21.8452 7.43907 21.6583 7.23434 21.4331 7.082C22.4579 5.17484 23.9344 1.93841 23.9344 0.546069C23.9344 0.206492 23.6134 -0.0562666 23.2803 0.0108683C21.2763 0.415701 19.4079 0.602508 17.5705 0.582491C15.6819 0.56175 13.3315 0.327176 11.8546 0.0120968C11.3981 -0.0853175 11.0317 0.425602 11.2725 0.826966C11.6323 1.42677 11.8528 2.06098 11.974 2.70017C10.1205 2.75697 8.19828 2.53237 6.74342 1.80487C6.35152 1.60888 5.88895 1.95178 5.96064 2.38299C6.41823 5.12815 7.34135 6.73766 8.26686 7.95367H8.24633C7.30305 7.95367 6.53559 8.72113 6.53559 9.66442C6.53559 10.532 7.18489 11.2502 8.02289 11.3601C7.41202 12.3833 6.53963 13.354 5.62301 14.3727C3.67379 16.5389 1.46441 18.9942 0.721082 22.9586C0.36539 24.8556 0.377242 26.6305 0.75642 28.2342C1.11038 29.7314 1.78455 31.0866 2.76006 32.2621C4.05499 33.8224 5.8341 35.0331 8.04789 35.8607C10.0421 36.6061 12.3259 37.0001 14.6525 37.0001C16.9792 37.0001 19.2631 36.6061 21.2572 35.8607C23.471 35.0331 25.2501 33.8224 26.545 32.2621C27.5206 31.0866 28.1947 29.7315 28.5487 28.2342C28.9278 26.6305 28.9397 24.8555 28.584 22.9586C27.8407 18.9943 25.6314 16.539 23.6822 14.3728C23.0204 13.6373 22.3908 12.9361 21.863 12.2244L28.4449 13.7367C29.1422 13.8969 29.8852 13.5918 30.2704 12.9893C30.6229 12.4376 30.625 11.7153 30.2778 11.1612ZM17.5585 1.67435C19.2396 1.69271 20.941 1.54572 22.7382 1.22544C22.4087 2.57269 21.3505 4.96888 20.3468 6.79424C19.6512 6.84663 19.0707 7.3165 18.8555 7.9536H17.3396C17.3054 7.87982 17.2674 7.79895 17.2251 7.70912C16.7564 6.71272 15.781 4.63942 15.781 2.87556C15.781 2.53648 15.4608 2.27358 15.1279 2.34021C14.4926 2.46733 13.7935 2.57016 13.0662 2.63462C12.9899 2.17906 12.8716 1.72277 12.6996 1.274C14.1666 1.50106 16.0145 1.65737 17.5585 1.67435ZM21.0952 8.49949V10.8291C21.0952 11.1702 20.8176 11.4479 20.4764 11.4479C20.1351 11.4479 19.8576 11.1703 19.8576 10.8291V8.49949C19.8576 8.15826 20.1351 7.88068 20.4764 7.88068C20.8176 7.88068 21.0952 8.15833 21.0952 8.49949ZM7.23338 3.18738C8.59834 3.65328 10.2774 3.85989 12.0908 3.79615L13.1729 3.72779C13.6833 3.68096 14.2012 3.61353 14.7229 3.5253C14.8931 5.21444 15.6648 6.95012 16.1336 7.9536H12.4982H11.3496H9.66029C9.64807 7.93445 9.63492 7.91566 9.62011 7.89774C8.70688 6.79908 7.78022 5.52829 7.23338 3.18738ZM22.8704 15.103C24.7236 17.1624 26.8239 19.4966 27.5109 23.1597C28.143 26.531 27.5353 29.3588 25.7047 31.5644C23.4476 34.2841 19.3159 35.908 14.6526 35.908C9.98931 35.908 5.85759 34.2842 3.60044 31.5645C1.76987 29.3589 1.16226 26.5311 1.7943 23.1598C2.48119 19.4966 4.58159 17.1624 6.43478 15.103C7.54283 13.8715 8.58967 12.7067 9.26058 11.3751H10.594C10.8957 11.3751 11.14 11.1306 11.14 10.8291C11.14 10.5276 10.8956 10.2832 10.594 10.2832H8.24626C7.90502 10.2832 7.62745 10.0056 7.62745 9.66435C7.62745 9.32311 7.90502 9.04554 8.24626 9.04554H18.7656V10.2831H13.1965C12.8948 10.2831 12.6505 10.5276 12.6505 10.8291C12.6505 11.1305 12.8949 11.375 13.1965 11.375H18.8554C19.0838 12.0513 19.7239 12.5398 20.4763 12.5398C20.5632 12.5398 20.6485 12.5332 20.7321 12.5207C21.3414 13.4021 22.0841 14.2293 22.8704 15.103ZM22.1872 8.75329L27.3206 7.31658C27.6456 7.22545 27.9925 7.42129 28.0833 7.74569C28.1742 8.07081 27.9787 8.41755 27.6542 8.50831L24.7205 9.3294C24.6966 9.33612 24.6737 9.34479 24.6515 9.3544L22.1872 8.7882V8.75329ZM29.431 12.2077C29.3546 12.5403 29.0225 12.7488 28.6894 12.6723L22.1529 11.1704C22.1753 11.0601 22.1871 10.9459 22.1871 10.829V9.90846L28.9664 11.4661C29.295 11.5416 29.5066 11.8789 29.431 12.2077Z" fill="#FF7510"/>
</svg>
