<svg width="159" height="159" viewBox="0 0 159 159" fill="none" xmlns="http://www.w3.org/2000/svg">
<path d="M44.5707 59.2121C42.5115 59.2121 40.6283 57.8364 40.0728 55.7523C40.0728 55.7523 39.5697 53.8651 38.9405 51.4242C37.8356 47.2023 33.9951 44.2422 29.6055 44.2422C27.0329 44.2422 24.9473 42.1566 24.9473 39.584C24.9473 37.0114 27.0329 34.9258 29.6055 34.9258C38.2297 34.9258 45.7763 40.747 47.9579 49.0821C48.5793 51.4928 49.0727 53.3449 49.0749 53.3527C49.8357 56.2079 47.7343 59.2121 44.5707 59.2121Z" fill="#006E96"/>
<path d="M114.426 99.1264H54.553C52.4155 99.1264 50.5522 97.6715 50.0339 95.598L40.0551 55.6825C39.7073 54.2912 40.02 52.8165 40.9026 51.6861C41.7854 50.5554 43.1397 49.8945 44.5742 49.8945H124.405C125.84 49.8945 127.194 50.5554 128.077 51.6861C128.96 52.8168 129.272 54.2912 128.924 55.6825L118.945 95.598C118.427 97.6718 116.564 99.1264 114.426 99.1264Z" fill="#DADCDF"/>
<path d="M64.5315 134.052C56.4607 134.052 49.8945 127.485 49.8945 119.414C49.8945 111.344 56.4607 104.777 64.5315 104.777C72.6023 104.777 79.1685 111.344 79.1685 119.414C79.1685 127.485 72.6023 134.052 64.5315 134.052Z" fill="#004B69"/>
<path d="M104.448 134.052C96.3767 134.052 89.8105 127.485 89.8105 119.414C89.8105 111.344 96.3767 104.777 104.448 104.777C112.518 104.777 119.085 111.344 119.085 119.414C119.085 127.485 112.518 134.052 104.448 134.052Z" fill="#00283C"/>
<path d="M124.405 49.8945H79.5V99.1264H114.426C116.564 99.1264 118.427 97.6715 118.945 95.598L128.924 55.6825C129.272 54.2912 128.96 52.8165 128.077 51.6861C127.194 50.5557 125.839 49.8945 124.405 49.8945Z" fill="#B4BED2"/>
<path d="M119.416 0H39.5845C17.7577 0 0 17.7577 0 39.5845V119.416C0 141.242 17.7577 159 39.5845 159H119.416C141.242 159 159 141.242 159 119.416V39.5845C159 17.7577 141.242 0 119.416 0V0ZM119.416 149.684H39.5845C22.8948 149.684 9.31641 136.105 9.31641 119.416V39.5845C9.31641 32.9167 11.4853 26.7471 15.1522 21.7398L137.26 143.848C132.253 147.515 126.083 149.684 119.416 149.684ZM149.684 119.416C149.684 126.083 147.515 132.253 143.848 137.26L21.7398 15.1522C26.7468 11.4853 32.9167 9.31641 39.5845 9.31641H119.416C136.105 9.31641 149.684 22.8948 149.684 39.5845V119.416Z" fill="#1FABDC"/>
<path d="M159 119.416V39.5845C159 17.7577 141.242 0 119.416 0H79.5V9.31641H119.416C136.105 9.31641 149.684 22.8948 149.684 39.5845V119.416C149.684 126.083 147.515 132.253 143.848 137.26L79.5 72.9124V86.0876L137.26 143.848C132.253 147.515 126.083 149.684 119.416 149.684H79.5V159H119.416C141.242 159 159 141.242 159 119.416Z" fill="#1C1C39"/>
</svg>
