<svg width="24" height="24" viewBox="0 0 24 24" fill="none" xmlns="http://www.w3.org/2000/svg">
<path d="M12 2.25C6.62391 2.25 2.25 6.62391 2.25 12C2.25 17.3761 6.62391 21.75 12 21.75C17.3761 21.75 21.75 17.3761 21.75 12C21.75 6.62391 17.3761 2.25 12 2.25ZM6.88266 14.6719C7.64813 13.7653 8.18859 13.3842 8.18859 10.8844C8.18859 10.7672 8.19172 10.6538 8.19797 10.5441C8.19913 10.5065 8.21157 10.4701 8.23366 10.4397C8.25576 10.4093 8.28649 10.3862 8.32187 10.3734C8.35725 10.3607 8.39564 10.3589 8.43206 10.3683C8.46848 10.3776 8.50124 10.3977 8.52609 10.4259L13.1198 15.4355C13.1444 15.4623 13.1606 15.4956 13.1665 15.5315C13.1724 15.5673 13.1678 15.6041 13.1532 15.6374C13.1386 15.6706 13.1147 15.699 13.0843 15.7189C13.0539 15.7388 13.0184 15.7494 12.982 15.7495H7.40625C6.85219 15.75 6.56531 15.0469 6.88266 14.6719ZM13.8638 16.7067C13.7592 17.5847 12.9806 18 12 18C11.0194 18 10.2417 17.5847 10.1367 16.7072C10.1339 16.681 10.1367 16.6544 10.1449 16.6294C10.1531 16.6043 10.1665 16.5812 10.1842 16.5617C10.2019 16.5421 10.2235 16.5265 10.2476 16.5159C10.2717 16.5053 10.2978 16.4999 10.3242 16.5H13.6772C13.7035 16.5 13.7295 16.5055 13.7535 16.5162C13.7775 16.5269 13.799 16.5425 13.8166 16.562C13.8342 16.5816 13.8475 16.6046 13.8556 16.6296C13.8637 16.6546 13.8665 16.681 13.8638 16.7072V16.7067ZM17.0044 17.5233C16.8572 17.657 16.6629 17.7268 16.4642 17.7174C16.2655 17.7079 16.0788 17.6198 15.945 17.4727L6.945 7.53516C6.81403 7.38752 6.74653 7.19422 6.75713 6.99715C6.76773 6.80008 6.85558 6.61513 7.00164 6.4824C7.14769 6.34967 7.34017 6.27985 7.53736 6.28809C7.73454 6.29633 7.92053 6.38195 8.055 6.52641L17.055 16.4639C17.1213 16.5368 17.1726 16.6221 17.2059 16.7148C17.2393 16.8075 17.254 16.9059 17.2493 17.0043C17.2446 17.1027 17.2206 17.1993 17.1785 17.2884C17.1365 17.3775 17.0773 17.4575 17.0044 17.5238V17.5233ZM16.9219 15.1505L10.148 7.75922C10.1278 7.73737 10.1132 7.71105 10.1052 7.68242C10.0972 7.65379 10.0961 7.62367 10.1021 7.59455C10.108 7.56543 10.1208 7.53815 10.1394 7.51494C10.158 7.49174 10.1818 7.47328 10.2089 7.46109C10.2703 7.43391 10.3312 7.40859 10.3912 7.38469C10.4598 7.3561 10.5215 7.31347 10.5726 7.25953C10.6236 7.2056 10.6628 7.14156 10.6875 7.07156C10.8619 6.49687 11.3508 6 12 6C12.6492 6 13.1386 6.49687 13.3125 7.07156C13.3374 7.14164 13.3767 7.20572 13.4279 7.25965C13.4791 7.31359 13.541 7.35618 13.6097 7.38469C14.6039 7.78031 15.8128 8.59453 15.8128 10.8848C15.8128 13.3847 16.3537 13.7658 17.1192 14.6723C17.1985 14.7683 17.244 14.8878 17.2486 15.0122C17.2513 15.0512 17.2418 15.0901 17.2214 15.1234C17.201 15.1567 17.1706 15.1828 17.1346 15.1981C17.0986 15.2133 17.0588 15.2169 17.0206 15.2084C16.9825 15.1998 16.948 15.1796 16.9219 15.1505Z" fill="#1C1C39"/>
</svg>
