<svg width="117" height="112" viewBox="0 0 117 112" fill="none" xmlns="http://www.w3.org/2000/svg">
<path d="M80.7683 64.0351H19.4559L72.5496 30.2774C72.7041 30.1792 72.8378 30.0516 72.9429 29.9017C73.048 29.7519 73.1226 29.5828 73.1624 29.4041C73.2022 29.2254 73.2064 29.0406 73.1747 28.8603C73.1431 28.68 73.0762 28.5077 72.978 28.3533L67.7176 20.08C66.518 18.1978 64.6206 16.8682 62.4419 16.3831C60.2632 15.898 57.981 16.297 56.0961 17.4925L48.625 22.2428L49.2168 19.4111C49.4501 18.3873 49.4788 17.3275 49.3012 16.2926C49.1237 15.2577 48.7434 14.2681 48.1823 13.3806C47.6211 12.4931 46.8901 11.7253 46.0313 11.1212C45.1724 10.5171 44.2027 10.0886 43.1778 9.86041C42.1529 9.63222 41.0929 9.6088 40.0589 9.79149C39.0249 9.97418 38.0372 10.3594 37.1525 10.925C36.2679 11.4905 35.5037 12.2254 34.9038 13.0872C34.304 13.949 33.8804 14.9209 33.6573 15.9469L29.776 33.3802L16.7799 30.4874C14.8418 30.0555 12.8122 30.3625 11.0886 31.3484C9.36496 32.3343 8.0714 33.928 7.46117 35.8176C6.85093 37.7072 6.96798 39.7565 7.78938 41.5643C8.61079 43.3721 10.0774 44.8082 11.9021 45.5914L3.89829 50.6806C2.01608 51.8802 0.686583 53.7775 0.201488 55.9561C-0.283606 58.1348 0.115316 60.4169 1.31073 62.3018L6.5711 70.5753C6.66927 70.7298 6.79692 70.8634 6.94675 70.9685C7.09657 71.0737 7.26564 71.1483 7.4443 71.1881C7.62296 71.2279 7.80771 71.2321 7.988 71.2005C8.16828 71.1688 8.34058 71.102 8.49504 71.0038L13.3914 67.8913V103.171C13.3939 105.403 14.2818 107.543 15.8601 109.122C17.4385 110.7 19.5784 111.588 21.8105 111.59H73.7438C75.9758 111.587 78.1156 110.7 79.6939 109.121C81.2721 107.543 82.1599 105.403 82.1624 103.171V65.4287C82.1624 65.2457 82.1263 65.0644 82.0563 64.8953C81.9862 64.7262 81.8835 64.5725 81.754 64.4431C81.6246 64.3137 81.4709 64.211 81.3018 64.141C81.1326 64.071 80.9513 64.035 80.7683 64.0351ZM57.5917 19.845C58.4907 19.2701 59.5353 18.9643 60.6023 18.9637C61.0176 18.9639 61.4317 19.0097 61.8371 19.1001C62.5596 19.259 63.2435 19.5596 63.8491 19.9845C64.4547 20.4094 64.9701 20.9503 65.3653 21.5757L69.878 28.6729L47.9279 42.6294L40.3938 30.7801L57.5917 19.845ZM36.378 16.5529C36.679 15.2117 37.5006 14.0449 38.6619 13.3094C39.8232 12.5739 41.2292 12.3298 42.5704 12.6309C43.9117 12.932 45.0784 13.7536 45.8139 14.9149C46.5494 16.0762 46.7935 17.4822 46.4924 18.8234L45.3482 24.2968L32.8827 32.252L36.378 16.5529ZM38.041 32.2757L45.5752 44.125L32.8557 52.212L25.3218 40.3626L38.041 32.2757ZM10.674 41.0483C10.124 40.1833 9.84277 39.1745 9.86602 38.1497C9.88926 37.1248 10.2159 36.1298 10.8046 35.2906C11.3934 34.4514 12.2177 33.8056 13.1735 33.4349C14.1292 33.0642 15.1735 32.9853 16.1741 33.2081L27.436 35.7152L14.9344 43.552L13.9212 43.3262C13.2563 43.1801 12.6269 42.9035 12.0695 42.5125C11.5121 42.1215 11.0378 41.6238 10.674 41.0483ZM8.17589 67.9039L3.66346 60.8064C2.86383 59.5456 2.59694 58.0191 2.92135 56.5618C3.24576 55.1045 4.13497 53.8354 5.39392 53.0328L22.9696 41.8583L30.5035 53.7076L8.17589 67.9039ZM35.2019 108.803H21.8105C20.3175 108.801 18.8862 108.207 17.8305 107.151C16.7748 106.096 16.1809 104.664 16.1792 103.171V66.8224H35.2026L35.2019 108.803ZM52.9163 108.803H37.9893V66.8224H52.9163V108.803ZM79.3746 103.171C79.3729 104.664 78.7791 106.095 77.7235 107.151C76.6679 108.207 75.2367 108.801 73.7438 108.803H55.7036V66.8224H79.3746V103.171Z" fill="#1C1C39"/>
<path d="M96.3521 51.3738L97.0187 47.4867C97.0626 47.2305 97.0339 46.9671 96.936 46.7263C96.838 46.4855 96.6747 46.2769 96.4644 46.1241C96.2541 45.9713 96.0053 45.8803 95.746 45.8615C95.4867 45.8427 95.2274 45.8967 94.9972 46.0175L91.5065 47.8525L88.0157 46.0175C87.7855 45.8965 87.526 45.8423 87.2667 45.861C87.0073 45.8798 86.7583 45.9707 86.5479 46.1236C86.3375 46.2764 86.1741 46.4851 86.0761 46.726C85.9781 46.9669 85.9495 47.2304 85.9935 47.4867L86.6601 51.3738L83.8361 54.1263C83.6498 54.3078 83.5181 54.5378 83.4557 54.7903C83.3933 55.0428 83.4029 55.3077 83.4832 55.5551C83.5636 55.8024 83.7116 56.0224 83.9104 56.19C84.1092 56.3576 84.351 56.4663 84.6084 56.5037L88.5107 57.0709L90.256 60.6073C90.371 60.8406 90.5491 61.037 90.77 61.1743C90.9908 61.3117 91.2458 61.3844 91.5059 61.3844C91.766 61.3844 92.0209 61.3117 92.2417 61.1743C92.4626 61.037 92.6407 60.8406 92.7557 60.6073L94.5008 57.0709L98.4031 56.5037C98.6605 56.4663 98.9022 56.3576 99.1011 56.19C99.2999 56.0224 99.4479 55.8024 99.5283 55.5551C99.6086 55.3077 99.6181 55.0428 99.5558 54.7903C99.4934 54.5378 99.3617 54.3078 99.1754 54.1263L96.3521 51.3738ZM93.375 54.4167C93.1514 54.4491 92.939 54.5355 92.7562 54.6683C92.5734 54.8011 92.4256 54.9764 92.3256 55.179L91.5059 56.8402L90.6859 55.179C90.5859 54.9764 90.4382 54.8012 90.2554 54.6683C90.0726 54.5355 89.8603 54.4492 89.6367 54.4167L87.8031 54.1502L89.1299 52.8572C89.2917 52.6994 89.4128 52.5047 89.4826 52.2898C89.5525 52.0749 89.569 51.8463 89.5308 51.6235L89.2175 49.7974L90.8573 50.6594C91.0573 50.7646 91.2799 50.8196 91.5059 50.8196C91.7318 50.8196 91.9544 50.7646 92.1544 50.6594L93.794 49.7974L93.4809 51.6235C93.4427 51.8462 93.4592 52.0749 93.529 52.2898C93.5988 52.5047 93.7198 52.6994 93.8816 52.8572L95.2083 54.1502L93.375 54.4167Z" fill="#003049"/>
<path d="M112.381 32.1716L108.549 31.2401L107.143 27.5555C107.05 27.3125 106.892 27.1002 106.685 26.9428C106.478 26.7853 106.231 26.6888 105.972 26.6644C105.713 26.6399 105.452 26.6884 105.219 26.8044C104.987 26.9203 104.791 27.0991 104.654 27.3205L102.585 30.6776L98.6459 30.8757C98.3862 30.8888 98.1353 30.9742 97.9216 31.1224C97.708 31.2706 97.54 31.4756 97.4368 31.7143C97.3336 31.953 97.2992 32.2157 97.3375 32.4729C97.3758 32.7301 97.4853 32.9715 97.6536 33.1697L100.207 36.1755L99.1782 39.9826C99.1104 40.2336 99.1141 40.4986 99.1891 40.7476C99.264 40.9967 99.4071 41.2198 99.6022 41.3917C99.7973 41.5637 100.037 41.6776 100.293 41.7206C100.549 41.7636 100.813 41.7341 101.053 41.6352L104.7 40.1361L108.005 42.2909C108.223 42.433 108.476 42.5113 108.736 42.517C108.996 42.5227 109.252 42.4555 109.476 42.3231C109.7 42.1907 109.882 41.9984 110.002 41.7678C110.122 41.5372 110.176 41.2776 110.156 41.0183L109.857 37.0858L112.926 34.6105C113.129 34.4473 113.281 34.2307 113.367 33.9852C113.453 33.7398 113.468 33.4753 113.412 33.2216C113.355 32.9678 113.228 32.7351 113.046 32.5495C112.864 32.364 112.634 32.2331 112.381 32.1716ZM107.537 35.377C107.361 35.5188 107.222 35.7013 107.132 35.9087C107.043 36.116 107.005 36.3421 107.022 36.5674L107.161 38.4147L105.61 37.4022C105.42 37.2788 105.204 37.2032 104.979 37.182C104.754 37.1608 104.527 37.1946 104.318 37.2805L102.605 37.9847L103.088 36.1962C103.147 35.9781 103.152 35.7489 103.103 35.5284C103.053 35.308 102.951 35.1028 102.805 34.9305L101.606 33.5185L103.456 33.4256C103.682 33.4144 103.901 33.3484 104.096 33.2334C104.29 33.1184 104.454 32.9578 104.573 32.7655L105.545 31.1886L106.205 32.9195C106.285 33.1306 106.416 33.3189 106.586 33.4682C106.755 33.6176 106.958 33.7235 107.178 33.7768L108.978 34.2144L107.537 35.377Z" fill="#003049"/>
<path d="M91.8844 9.51706L90.8557 13.3241C90.7878 13.5751 90.7915 13.8402 90.8664 14.0892C90.9413 14.3383 91.0844 14.5614 91.2795 14.7334C91.4746 14.9054 91.7139 15.0193 91.9704 15.0624C92.2269 15.1054 92.4903 15.0758 92.7309 14.9769L96.3776 13.4776L99.6808 15.6329C99.8986 15.775 100.152 15.8533 100.412 15.859C100.672 15.8647 100.928 15.7975 101.152 15.6651C101.376 15.5326 101.558 15.3402 101.678 15.1096C101.798 14.879 101.852 14.6193 101.832 14.36L101.533 10.4276L104.603 7.95198C104.806 7.78876 104.958 7.57219 105.044 7.32675C105.13 7.08131 105.145 6.81678 105.088 6.56307C105.032 6.30935 104.905 6.07657 104.723 5.89102C104.541 5.70547 104.31 5.57456 104.058 5.51308L100.225 4.58188L98.82 0.897052C98.7273 0.654046 98.5685 0.44182 98.3615 0.284379C98.1545 0.126937 97.9075 0.0305613 97.6486 0.00615223C97.3897 -0.0182569 97.1291 0.0302744 96.8963 0.146257C96.6635 0.26224 96.4678 0.441047 96.3314 0.662453L94.2618 4.01931L90.3229 4.21721C90.0631 4.23024 89.8122 4.31567 89.5985 4.46385C89.3848 4.61203 89.2169 4.81704 89.1136 5.05571C89.0103 5.29437 88.9759 5.55716 89.0142 5.81437C89.0525 6.07158 89.162 6.31294 89.3303 6.51117L91.8844 9.51706ZM95.1342 6.76598C95.3599 6.75464 95.5794 6.68861 95.7739 6.57357C95.9684 6.45853 96.1319 6.29793 96.2505 6.10561L97.2229 4.52869L97.883 6.25961C97.9635 6.47072 98.0941 6.65909 98.2636 6.80848C98.4331 6.95787 98.6364 7.06382 98.856 7.11718L100.656 7.55455L99.2142 8.71733C99.0382 8.85914 98.8995 9.0416 98.8098 9.24898C98.72 9.45636 98.6821 9.68244 98.6992 9.90774L98.8386 11.7553L97.2867 10.7428C97.0975 10.6193 96.8811 10.5438 96.6561 10.5226C96.4312 10.5014 96.2045 10.5352 95.9955 10.6211L94.2822 11.3253L94.7654 9.5368C94.8243 9.31865 94.8294 9.08943 94.7801 8.8689C94.7307 8.64836 94.6285 8.44313 94.4822 8.27089L93.283 6.85865L95.1342 6.76598Z" fill="#003049"/>
<path d="M66.6005 51.5753C63.4541 53.5554 61.9168 55.9548 61.853 56.0561C61.655 56.3683 61.5892 56.7463 61.6699 57.107C61.7506 57.4677 61.9713 57.7815 62.2835 57.9795C62.5956 58.1774 62.9736 58.2433 63.3343 58.1626C63.695 58.0818 64.0089 57.8611 64.2069 57.549C64.4159 57.2238 69.4584 49.6016 80.4337 52.3165C80.7911 52.4014 81.1676 52.3418 81.4813 52.1506C81.795 51.9594 82.0205 51.652 82.1088 51.2954C82.1971 50.9388 82.1409 50.5618 81.9526 50.2463C81.7644 49.9308 81.4591 49.7025 81.1033 49.6109C74.3506 47.9402 69.4893 49.7568 66.6005 51.5753Z" fill="#003049"/>
<path d="M93.0462 36.8169C93.3876 36.9586 93.7713 36.9589 94.1129 36.8176C94.4545 36.6764 94.726 36.4053 94.8677 36.0639C95.0094 35.7225 95.0097 35.3388 94.8684 34.9972C94.7272 34.6556 94.4561 34.3841 94.1147 34.2424C84.1932 30.1248 76.9822 33.2083 72.6802 36.5205C69.8262 38.7401 67.4638 41.5278 65.7426 44.7073C65.6612 44.8713 65.6129 45.0496 65.6004 45.2322C65.5879 45.4148 65.6116 45.5981 65.6699 45.7715C65.7283 45.945 65.8202 46.1053 65.9405 46.2432C66.0608 46.3811 66.2071 46.494 66.371 46.5754C66.5349 46.6568 66.7133 46.7051 66.8959 46.7176C67.0785 46.7301 67.2617 46.7065 67.4352 46.6481C67.6087 46.5898 67.7689 46.4978 67.9069 46.3775C68.0448 46.2572 68.1577 46.1109 68.2391 45.947C69.7749 43.149 71.8645 40.6931 74.3805 38.729C79.7897 34.5655 86.0698 33.9216 93.0462 36.8169Z" fill="#003049"/>
<path d="M77.3855 26.4917C77.2718 26.8433 77.3024 27.2258 77.4706 27.5549C77.6388 27.884 77.9309 28.1328 78.2825 28.2465C80.2012 28.8119 82.191 29.0994 84.1912 29.1004C86.5218 29.1004 89.2137 28.6797 91.6275 27.2489C94.7865 25.3772 96.8119 22.1883 97.6514 17.772C97.6863 17.5919 97.6852 17.4067 97.6484 17.227C97.6116 17.0473 97.5396 16.8767 97.4367 16.7248C97.3337 16.573 97.2018 16.443 97.0485 16.3422C96.8952 16.2415 96.7235 16.172 96.5433 16.1378C96.3631 16.1035 96.1779 16.1052 95.9983 16.1427C95.8187 16.1802 95.6483 16.2528 95.4969 16.3563C95.3454 16.4598 95.2159 16.5921 95.1157 16.7458C95.0155 16.8995 94.9466 17.0714 94.9131 17.2517C94.2306 20.843 92.6511 23.3978 90.2185 24.8448C85.5913 27.598 79.2395 25.6269 79.1389 25.5949C78.7875 25.4816 78.4054 25.5124 78.0767 25.6805C77.7479 25.8486 77.4993 26.1404 77.3855 26.4917Z" fill="#003049"/>
<path d="M58.9634 62.5024C59.4598 62.5024 59.9451 62.3552 60.3579 62.0795C60.7707 61.8037 61.0924 61.4117 61.2824 60.9531C61.4725 60.4945 61.5222 59.9898 61.4254 59.5029C61.3286 59.016 61.0895 58.5687 60.7385 58.2177C60.3875 57.8666 59.9402 57.6275 59.4533 57.5307C58.9665 57.4338 58.4618 57.4835 58.0031 57.6735C57.5445 57.8634 57.1524 58.1851 56.8766 58.5979C56.6008 59.0107 56.4536 59.496 56.4536 59.9924C56.4544 60.6578 56.7191 61.2957 57.1896 61.7663C57.6601 62.2368 58.298 62.5015 58.9634 62.5024ZM58.9634 59.7151C59.0183 59.715 59.072 59.7313 59.1177 59.7617C59.1633 59.7922 59.1989 59.8356 59.22 59.8863C59.241 59.937 59.2465 59.9929 59.2358 60.0467C59.2251 60.1006 59.1987 60.1501 59.1599 60.1889C59.121 60.2277 59.0716 60.2542 59.0177 60.2649C58.9638 60.2756 58.908 60.2701 58.8573 60.249C58.8065 60.228 58.7632 60.1924 58.7327 60.1467C58.7022 60.101 58.686 60.0473 58.686 59.9924C58.6864 59.919 58.7157 59.8486 58.7677 59.7967C58.8196 59.7448 58.8899 59.7154 58.9634 59.7151Z" fill="#003049"/>
<path d="M78.7116 16.975C79.2081 16.975 79.6933 16.8278 80.1061 16.552C80.5189 16.2762 80.8406 15.8842 81.0306 15.4256C81.2205 14.9669 81.2702 14.4623 81.1734 13.9754C81.0765 13.4885 80.8375 13.0413 80.4865 12.6902C80.1354 12.3392 79.6882 12.1002 79.2013 12.0033C78.7144 11.9065 78.2097 11.9562 77.7511 12.1461C77.2925 12.3361 76.9005 12.6578 76.6247 13.0706C76.3489 13.4834 76.2017 13.9686 76.2017 14.4651C76.2024 15.1305 76.4671 15.7685 76.9376 16.2391C77.4082 16.7096 78.0462 16.9743 78.7116 16.975ZM78.7116 14.1877C78.7665 14.1877 78.8202 14.204 78.8659 14.2345C78.9115 14.265 78.9471 14.3084 78.9681 14.3591C78.9891 14.4099 78.9946 14.4657 78.9839 14.5195C78.9731 14.5734 78.9467 14.6228 78.9078 14.6616C78.869 14.7005 78.8195 14.7269 78.7656 14.7376C78.7118 14.7482 78.656 14.7427 78.6053 14.7217C78.5545 14.7006 78.5112 14.665 78.4807 14.6193C78.4503 14.5737 78.434 14.52 78.4341 14.4651C78.4344 14.3916 78.4638 14.3212 78.5158 14.2693C78.5678 14.2173 78.6382 14.188 78.7116 14.1877Z" fill="#003049"/>
<path d="M114.089 15.0605C113.592 15.0605 113.107 15.2078 112.694 15.4836C112.281 15.7594 111.96 16.1514 111.77 16.6101C111.58 17.0687 111.53 17.5734 111.627 18.0603C111.724 18.5472 111.963 18.9944 112.314 19.3454C112.665 19.6964 113.112 19.9355 113.599 20.0323C114.086 20.1291 114.591 20.0794 115.049 19.8894C115.508 19.6994 115.9 19.3776 116.176 18.9648C116.451 18.552 116.599 18.0667 116.599 17.5703C116.598 16.9049 116.333 16.2669 115.863 15.7964C115.392 15.3259 114.754 15.0612 114.089 15.0605ZM114.089 17.8479C114.034 17.8479 113.98 17.8316 113.934 17.8011C113.889 17.7706 113.853 17.7272 113.832 17.6765C113.811 17.6258 113.806 17.57 113.816 17.5161C113.827 17.4623 113.853 17.4128 113.892 17.374C113.931 17.3352 113.981 17.3088 114.034 17.2981C114.088 17.2873 114.144 17.2928 114.195 17.3138C114.246 17.3349 114.289 17.3704 114.319 17.4161C114.35 17.4617 114.366 17.5154 114.366 17.5703C114.366 17.6438 114.337 17.7142 114.285 17.7662C114.233 17.8182 114.162 17.8476 114.089 17.8479Z" fill="#003049"/>
<path d="M57.936 48.3674C57.936 47.8709 57.7887 47.3856 57.5129 46.9728C57.237 46.56 56.8449 46.2383 56.3862 46.0483C55.9275 45.8584 55.4227 45.8088 54.9358 45.9058C54.4489 46.0027 54.0017 46.2419 53.6507 46.5931C53.2997 46.9442 53.0608 47.3916 52.9641 47.8786C52.8674 48.3656 52.9173 48.8703 53.1075 49.3289C53.2977 49.7875 53.6196 50.1794 54.0325 50.455C54.4455 50.7307 54.9309 50.8777 55.4274 50.8774C56.0926 50.8763 56.7303 50.6115 57.2006 50.141C57.6708 49.6705 57.9353 49.0326 57.936 48.3674ZM55.4274 48.6461C55.3725 48.6462 55.3189 48.63 55.2732 48.5995C55.2276 48.5691 55.192 48.5259 55.1709 48.4752C55.1498 48.4246 55.1442 48.3688 55.1548 48.315C55.1654 48.2612 55.1917 48.2117 55.2304 48.1728C55.2691 48.1339 55.3184 48.1073 55.3722 48.0965C55.426 48.0856 55.4818 48.0909 55.5325 48.1118C55.5833 48.1326 55.6267 48.168 55.6574 48.2135C55.688 48.259 55.7045 48.3125 55.7047 48.3674C55.7044 48.4411 55.6749 48.5116 55.6228 48.5637C55.5706 48.6157 55.4999 48.6449 55.4262 48.645L55.4274 48.6461Z" fill="#003049"/>
<path d="M109.956 49.9434C109.459 49.9434 108.974 50.0906 108.561 50.3664C108.149 50.6422 107.827 51.0342 107.637 51.4928C107.447 51.9514 107.397 52.4561 107.494 52.943C107.591 53.4299 107.83 53.8771 108.181 54.2282C108.532 54.5792 108.979 54.8182 109.466 54.9151C109.953 55.0119 110.458 54.9622 110.916 54.7722C111.375 54.5823 111.767 54.2606 112.043 53.8478C112.319 53.435 112.466 52.9498 112.466 52.4533C112.465 51.7879 112.2 51.1499 111.73 50.6793C111.259 50.2088 110.621 49.9441 109.956 49.9434ZM109.956 52.7307C109.901 52.7306 109.847 52.7143 109.802 52.6838C109.756 52.6533 109.721 52.61 109.7 52.5593C109.679 52.5086 109.673 52.4529 109.684 52.3991C109.695 52.3453 109.721 52.2959 109.76 52.2571C109.799 52.2184 109.848 52.192 109.902 52.1813C109.956 52.1706 110.012 52.1761 110.062 52.1971C110.113 52.2181 110.156 52.2537 110.187 52.2993C110.217 52.3449 110.233 52.3985 110.233 52.4533C110.233 52.5268 110.204 52.5972 110.152 52.6491C110.1 52.7011 110.029 52.7304 109.956 52.7307Z" fill="#003049"/>
</svg>
