<svg width="64" height="64" viewBox="0 0 64 64" fill="none" xmlns="http://www.w3.org/2000/svg">
<rect width="64" height="64" rx="12" fill="#E8EDFD"/>
<path fill-rule="evenodd" clip-rule="evenodd" d="M24.5766 17.4632C24.8536 17.6632 25.3003 18.1224 25.3003 18.1224C27.0343 19.7476 29.6461 23.7899 30.4848 25.8407C30.5024 25.8407 30.9998 27.0601 31.0193 27.6401V27.7174C31.0193 28.6062 30.5219 29.4376 29.7222 29.8632C29.3925 30.0387 28.5906 30.2019 28.2037 30.2806C28.0756 30.3067 27.993 30.3235 27.9881 30.3284C26.8451 30.5026 25.0916 30.6174 23.1664 30.6174C21.1456 30.6174 19.316 30.5026 18.1906 30.2888C18.171 30.2888 17.1431 30.077 16.7998 29.9404C16.3044 29.7286 15.885 29.3406 15.6178 28.8576C15.4266 28.4716 15.333 28.0638 15.333 27.6401C15.3506 27.1947 15.6373 26.3633 15.7699 26.0347C16.6087 23.8671 19.3531 19.7278 21.0305 18.1422C21.2048 17.9654 21.4031 17.7801 21.5411 17.6512C21.6147 17.5824 21.6712 17.5297 21.6976 17.5028C22.117 17.1742 22.6319 17 23.1859 17C23.6794 17 24.1748 17.1544 24.5766 17.4632ZM42.3807 28.9363C42.3807 29.8093 41.6844 30.516 40.8242 30.516C39.964 30.516 39.2676 29.8093 39.2676 28.9363L38.8385 21.3049C38.8385 20.1924 39.728 19.2917 40.8242 19.2917C41.9204 19.2917 42.8079 20.1924 42.8079 21.3049L42.3807 28.9363ZM47.1995 34.0598C47.695 34.2736 48.1143 34.6596 48.3816 35.1426C48.5727 35.5287 48.6663 35.9365 48.6663 36.3621C48.6488 36.8055 48.362 37.6389 48.2275 37.9675C47.3907 40.1332 44.6443 44.2726 42.9688 45.8602C42.7975 46.0328 42.603 46.2143 42.4654 46.3427L42.4652 46.3428L42.4652 46.3429C42.3882 46.4147 42.329 46.4699 42.3017 46.4976C41.8804 46.8263 41.3674 47.0005 40.8154 47.0005C40.318 47.0005 39.8226 46.8461 39.4227 46.5353C39.1457 46.3373 38.6991 45.878 38.6991 45.878C36.9631 44.2548 34.3532 40.2104 33.5145 38.1595C33.495 38.1595 32.9996 36.9421 32.9801 36.3621V36.2849C32.9801 35.394 33.4755 34.5626 34.2772 34.137C34.6062 33.9634 35.4055 33.7997 35.7933 33.7204L35.7933 33.7204L35.7933 33.7204C35.9227 33.6939 36.0063 33.6767 36.0112 33.6718C37.1542 33.4976 38.9078 33.3828 40.8329 33.3828C42.8537 33.3828 44.6833 33.4976 45.8088 33.7114C45.8263 33.7114 46.8562 33.9232 47.1995 34.0598ZM23.1756 33.4843C22.3154 33.4843 21.619 34.191 21.619 35.064L21.1899 42.6952C21.1899 43.8077 22.0793 44.7084 23.1756 44.7084C24.2718 44.7084 25.1593 43.8077 25.1593 42.6952L24.7321 35.064C24.7321 34.191 24.0357 33.4843 23.1756 33.4843Z" fill="#200E32"/>
</svg>
