<svg width="64" height="64" viewBox="0 0 64 64" fill="none" xmlns="http://www.w3.org/2000/svg">
<rect width="64" height="64" rx="12" fill="#FDE8E8"/>
<path fill-rule="evenodd" clip-rule="evenodd" d="M29.4709 19.5054L30.0162 25.6708C30.0162 26.7562 30.9029 27.6362 32.0007 27.6362C33.0968 27.6362 33.9853 26.7562 33.9853 25.6708L34.5306 19.5054C34.5306 18.1218 33.3978 17 32.0007 17C30.6036 17 29.4709 18.1218 29.4709 19.5054ZM29.9169 46.1901C30.0106 46.2755 30.0825 46.341 30.1164 46.3745C30.6525 46.7836 31.3079 47 32.0129 47C32.6444 47 33.2759 46.8072 33.7863 46.4218C34.1406 46.1745 34.7097 45.6036 34.7097 45.6036C36.922 43.5818 40.2504 38.5528 41.3207 36.0019C41.3428 36.0019 41.9761 34.4856 42 33.7637V33.6674C42 32.5601 41.3685 31.5256 40.3477 30.9965C39.9257 30.7779 38.8915 30.5728 38.4013 30.4756C38.2433 30.4442 38.1418 30.4241 38.1355 30.4183C36.6778 30.202 34.4417 30.0583 31.989 30.0583C29.4114 30.0583 27.0799 30.202 25.646 30.4656C25.6222 30.4656 24.3095 30.7311 23.8726 30.9001C23.2411 31.1656 22.705 31.6456 22.3653 32.2474C22.123 32.7292 22 33.2347 22 33.7637C22.0257 34.3183 22.3892 35.3528 22.5599 35.7619C23.6303 38.4564 27.1276 43.6073 29.2664 45.58C29.489 45.8004 29.7413 46.0302 29.9169 46.1901Z" fill="#C9252D"/>
</svg>
