<svg width="64" height="64" viewBox="0 0 64 64" fill="none" xmlns="http://www.w3.org/2000/svg">
<rect width="64" height="64" rx="12" fill="#E8FDE9"/>
<path fill-rule="evenodd" clip-rule="evenodd" d="M32.011 33.9416L32.6012 33.9391C34.942 33.9188 37.0304 33.7777 38.354 33.5343C38.3778 33.5343 39.6905 33.2689 40.1274 33.0998C40.7589 32.8344 41.295 32.3544 41.6347 31.7525C41.877 31.2707 42 30.7653 42 30.2362C41.9807 29.8203 41.7714 29.1344 41.596 28.6449L41.4401 28.238C40.3697 25.5435 36.8724 20.3927 34.7336 18.42L34.5841 18.2745L33.8836 17.6254C33.3475 17.2164 32.6921 17 31.9871 17C31.3556 17 30.7241 17.1927 30.2137 17.5782C30.0483 17.6936 29.8362 17.8794 29.657 18.0449L28.9956 18.6767C26.7929 20.8508 23.7031 25.5581 22.6793 27.998C22.6572 27.998 22.0239 29.5144 22 30.2362V30.3326C22 31.4398 22.6315 32.4744 23.6523 33.0034C23.9313 33.148 24.478 33.2866 24.9581 33.3921L25.8645 33.5816C27.3222 33.798 29.5583 33.9416 32.011 33.9416ZM29.4695 44.4945C29.4695 45.8781 30.6022 46.9999 31.9993 46.9999C33.3964 46.9999 34.5291 45.8781 34.5291 44.4945L33.9839 38.3291C33.9839 37.2437 33.0971 36.3637 31.9993 36.3637C30.9033 36.3637 30.0147 37.2437 30.0147 38.3291L29.4695 44.4945Z" fill="#92E3A9"/>
</svg>
