<svg width="17" height="17" viewBox="0 0 17 17" fill="none" xmlns="http://www.w3.org/2000/svg">
<path d="M0.720784 0.0513753L16.0758 7.61737C16.1595 7.65864 16.23 7.72252 16.2793 7.80178C16.3286 7.88104 16.3548 7.97253 16.3548 8.06588C16.3548 8.15922 16.3286 8.25071 16.2793 8.32997C16.23 8.40923 16.1595 8.47311 16.0758 8.51437L0.719784 16.0804C0.633756 16.1226 0.537394 16.1393 0.442174 16.1283C0.346955 16.1174 0.256891 16.0793 0.182709 16.0186C0.108526 15.9579 0.0533524 15.8771 0.023758 15.786C-0.00583645 15.6948 -0.00860405 15.5971 0.0157845 15.5044L1.53678 9.75937C1.56144 9.66641 1.61238 9.58253 1.68351 9.5178C1.75463 9.45306 1.84292 9.4102 1.93778 9.39437L8.81878 8.24737C8.85979 8.24058 8.89845 8.22368 8.93128 8.19819C8.9641 8.17269 8.99005 8.13942 9.00678 8.10137L9.02478 8.04138C9.03412 7.98576 9.02438 7.92863 8.99715 7.87925C8.96992 7.82987 8.9268 7.79115 8.87478 7.76938L8.81878 7.75338L1.89978 6.60038C1.8051 6.58437 1.71703 6.54144 1.6461 6.47671C1.57516 6.41198 1.52437 6.3282 1.49978 6.23537L0.0157845 0.628375C-0.00885774 0.535615 -0.0062816 0.437722 0.0232055 0.346386C0.0526927 0.25505 0.107845 0.174131 0.182076 0.113291C0.256307 0.0524512 0.34648 0.0142615 0.441828 0.00328244C0.537175 -0.00769663 0.633668 0.00899896 0.719784 0.0513753H0.720784Z" fill="#666666"/>
</svg>
