<svg width="20" height="22" viewBox="0 0 20 22" fill="none" xmlns="http://www.w3.org/2000/svg">
<path fill-rule="evenodd" clip-rule="evenodd" d="M18.8064 6.62288L18.184 5.54279C17.6574 4.62887 16.4905 4.31359 15.5753 4.83798V4.83798C15.1397 5.09461 14.6198 5.16742 14.1305 5.04035C13.6411 4.91329 13.2224 4.59678 12.9666 4.16064C12.8021 3.88342 12.7137 3.56766 12.7103 3.24531V3.24531C12.7251 2.72849 12.5302 2.22767 12.1698 1.85694C11.8094 1.4862 11.3143 1.27713 10.7973 1.27734H9.54326C9.03672 1.27734 8.55107 1.47918 8.19376 1.83821C7.83644 2.19724 7.63693 2.68386 7.63937 3.19039V3.19039C7.62435 4.23619 6.77224 5.07608 5.72632 5.07597C5.40397 5.07262 5.08821 4.98421 4.81099 4.81968V4.81968C3.89582 4.29528 2.72887 4.61056 2.20229 5.52448L1.5341 6.62288C1.00817 7.53566 1.31916 8.70187 2.22975 9.23158V9.23158C2.82166 9.57331 3.18629 10.2049 3.18629 10.8883C3.18629 11.5718 2.82166 12.2033 2.22975 12.5451V12.5451C1.32031 13.0712 1.00898 14.2346 1.5341 15.1446V15.1446L2.16568 16.2339C2.4124 16.679 2.82636 17.0076 3.31595 17.1467C3.80554 17.2859 4.3304 17.2242 4.77438 16.9753V16.9753C5.21084 16.7206 5.73094 16.6508 6.2191 16.7815C6.70725 16.9121 7.12299 17.2323 7.37392 17.6709C7.53845 17.9482 7.62686 18.2639 7.63021 18.5863V18.5863C7.63021 19.6428 8.48671 20.4993 9.54326 20.4993H10.7973C11.8502 20.4993 12.7053 19.6484 12.7103 18.5954V18.5954C12.7079 18.0873 12.9086 17.5993 13.2679 17.24C13.6272 16.8807 14.1152 16.6799 14.6233 16.6824C14.9449 16.691 15.2594 16.779 15.5387 16.9387V16.9387C16.4515 17.4646 17.6177 17.1536 18.1474 16.243V16.243L18.8064 15.1446C19.0615 14.7068 19.1315 14.1853 19.001 13.6956C18.8704 13.206 18.55 12.7886 18.1108 12.5359V12.5359C17.6715 12.2832 17.3511 11.8658 17.2206 11.3762C17.09 10.8866 17.16 10.3651 17.4151 9.92723C17.581 9.6376 17.8211 9.39747 18.1108 9.23158V9.23158C19.0159 8.70216 19.3262 7.54276 18.8064 6.63203V6.63203V6.62288Z" stroke="white" stroke-width="1.5" stroke-linecap="round" stroke-linejoin="round"/>
<circle cx="10.1752" cy="10.8881" r="2.63616" stroke="white" stroke-width="1.5" stroke-linecap="round" stroke-linejoin="round"/>
</svg>
