<svg width="11" height="10" viewBox="0 0 11 10" fill="none" xmlns="http://www.w3.org/2000/svg">
<path d="M9.7015 3.01635C9.70182 2.96151 9.69131 2.90715 9.67058 2.85639C9.64984 2.80562 9.61929 2.75945 9.58067 2.72051L7.814 0.953848C7.77507 0.915231 7.7289 0.884679 7.67813 0.863943C7.62737 0.843208 7.57301 0.832698 7.51817 0.833015C7.46334 0.832698 7.40898 0.843208 7.35821 0.863943C7.30744 0.884679 7.26127 0.915231 7.22234 0.953848L6.04317 2.13301L1.489 6.68718C1.45039 6.72611 1.41983 6.77229 1.3991 6.82305C1.37836 6.87382 1.36785 6.92818 1.36817 6.98301V8.74968C1.36817 8.86019 1.41207 8.96617 1.49021 9.04431C1.56835 9.12245 1.67433 9.16635 1.78484 9.16635H3.5515C3.60981 9.16952 3.66813 9.1604 3.72268 9.13958C3.77723 9.11877 3.8268 9.08672 3.86817 9.04551L8.39734 4.49135L9.58067 3.33301C9.6187 3.29263 9.64969 3.24615 9.67234 3.19551C9.67635 3.1623 9.67635 3.12873 9.67234 3.09551C9.67429 3.07612 9.67429 3.05658 9.67234 3.03718L9.7015 3.01635ZM3.38067 8.33301H2.2015V7.15385L6.339 3.01635L7.51817 4.19551L3.38067 8.33301ZM8.10567 3.60801L6.92651 2.42885L7.51817 1.84135L8.69317 3.01635L8.10567 3.60801Z" fill="#1C1C39"/>
</svg>
