<svg width="60" height="60" viewBox="0 0 60 60" fill="none" xmlns="http://www.w3.org/2000/svg">
<path d="M6.9171 3.65234H41.8912C45.6995 3.65234 48.8083 6.76115 48.8083 10.5694V46.5539C48.8083 50.3622 45.6995 53.471 41.8912 53.471H6.9171C3.10881 53.471 0 50.3622 0 46.5539V10.4917C0 6.76115 3.10881 3.65234 6.9171 3.65234Z" fill="#4A566E"/>
<path d="M22.6166 36.2165L12.3575 25.9574L0 38.3149V40.8797V46.4755C0 50.2838 3.10881 53.3926 6.9171 53.3926H41.8912C45.6995 53.3926 48.8083 50.2838 48.8083 46.4755V40.8797V33.1854L37.228 21.5273L22.6166 36.2165Z" fill="#1C1C39"/>
<path d="M22.3055 24.482C24.7092 24.482 26.6578 22.5334 26.6578 20.1297C26.6578 17.7259 24.7092 15.7773 22.3055 15.7773C19.9017 15.7773 17.9531 17.7259 17.9531 20.1297C17.9531 22.5334 19.9017 24.482 22.3055 24.482Z" fill="#FAFAFA"/>
<path d="M48.8079 56.3463C54.9889 56.3463 59.9996 51.3356 59.9996 45.1546C59.9996 38.9736 54.9889 33.9629 48.8079 33.9629C42.6269 33.9629 37.6162 38.9736 37.6162 45.1546C37.6162 51.3356 42.6269 56.3463 48.8079 56.3463Z" fill="white"/>
<path d="M47.1758 39.9485C47.1758 39.0159 47.8753 38.3164 48.8079 38.3164C49.6628 38.3164 50.44 39.0159 50.44 39.9485V50.5185C50.44 51.4511 49.7406 52.1506 48.8079 52.1506C47.8753 52.1506 47.1758 51.4511 47.1758 50.5185V39.9485Z" fill="#1C1C39"/>
<path d="M47.6421 41.0366C47.0203 40.4148 47.0203 39.4045 47.6421 38.7827C48.2639 38.161 49.2742 38.161 49.896 38.7827L53.6266 42.5133C54.2483 43.1351 54.2483 44.1454 53.6266 44.7672C53.0048 45.3889 51.9944 45.3889 51.3727 44.7672L47.6421 41.0366Z" fill="#1C1C39"/>
<path d="M47.6426 38.7827C48.2644 38.161 49.2747 38.161 49.8965 38.7827C50.5183 39.4045 50.5183 40.4148 49.8965 41.0366L46.2436 44.7672C45.6219 45.3889 44.6115 45.3889 43.9898 44.7672C43.368 44.1454 43.368 43.1351 43.9898 42.5133L47.6426 38.7827Z" fill="#1C1C39"/>
</svg>
