<svg width="24" height="24" viewBox="0 0 24 24" fill="none" xmlns="http://www.w3.org/2000/svg">
<path d="M2.21289 23.2484C0.975392 23.2484 0.412892 22.3484 0.975392 21.2609L10.9879 1.57344C11.5504 0.485938 12.4504 0.485938 13.0129 1.57344L23.0254 21.2609C23.5879 22.3484 23.0254 23.2484 21.7879 23.2484H2.21289Z" fill="#FFCE31"/>
<path d="M10.4252 8.84922L11.4752 15.7867C11.5877 16.4617 12.4502 16.4617 12.5627 15.7867L13.5752 8.84922C13.7627 6.14922 10.2377 6.14922 10.4252 8.84922Z" fill="#231F20"/>
<path d="M11.9998 20.1734C12.8697 20.1734 13.5748 19.4683 13.5748 18.5984C13.5748 17.7286 12.8697 17.0234 11.9998 17.0234C11.13 17.0234 10.4248 17.7286 10.4248 18.5984C10.4248 19.4683 11.13 20.1734 11.9998 20.1734Z" fill="#231F20"/>
</svg>
